<svg xmlns="http://www.w3.org/2000/svg" viewBox="0 0 1024 1024" width="1024" height="1024">
  <rect width="1024" height="1024" fill="#1b1942"/>
  <!-- moon glow -->
  <g>
    <circle cx="512" cy="468" r="322" fill="#232158"/>
    <circle cx="512" cy="468" r="270" fill="#2f2c6e"/>
    <circle cx="512" cy="468" r="224" fill="#403c8a"/>
    <circle cx="512" cy="468" r="183" fill="#5b57ad"/>
    <circle cx="512" cy="468" r="148" fill="#9491da"/>
    <circle cx="512" cy="468" r="120" fill="#ece9f6"/>
  </g>
  <!-- stars -->
  <g fill="#eceaf7">
    <circle cx="120" cy="120" r="3"/><circle cx="250" cy="80" r="2"/><circle cx="380" cy="150" r="2.2"/>
    <circle cx="700" cy="90" r="2.6"/><circle cx="850" cy="160" r="3"/><circle cx="930" cy="300" r="2.2"/>
    <circle cx="90" cy="320" r="2.4"/><circle cx="160" cy="470" r="2"/><circle cx="880" cy="450" r="2"/>
    <circle cx="940" cy="560" r="2.4"/><circle cx="70" cy="600" r="2.6"/><circle cx="820" cy="600" r="1.8"/>
    <circle cx="300" cy="60" r="1.6"/><circle cx="560" cy="70" r="1.8"/><circle cx="620" cy="200" r="1.6"/>
    <circle cx="210" cy="250" r="1.6"/><circle cx="780" cy="260" r="1.8"/><circle cx="120" cy="200" r="1.6"/>
  </g>
  <!-- hill -->
  <ellipse cx="512" cy="1240" rx="840" ry="350" fill="#23215a"/>
  <!-- cacti -->
  <g fill="#141233">
    <path d="M250 905 q-12 0 -12 14 v70 q0 12 12 12 q12 0 12-12 v-70 q0-14-12-14z M238 928 q-22 0-22 22 v18 q0 10 8 10 q8 0 8-10 v-16 q0-8 6-8z M262 922 q22 0 22 22 v22 q0 10-8 10 q-8 0-8-10 v-20 q0-8-6-8z"/>
    <path d="M792 930 q-11 0 -11 13 v60 q0 11 11 11 q11 0 11-11 v-60 q0-13-11-13z M781 950 q-19 0-19 19 v16 q0 9 7 9 q7 0 7-9 v-14 q0-7 5-7z"/>
  </g>
  <!-- swan silhouette on the hill -->
  <g transform="translate(355 623) scale(1.43)" fill="#141233">
    <path d="M76 152 C66 134 74 120 92 117 C114 112 146 108 172 90 L188 82 C178 102 170 112 159 121 C151 144 144 158 120 162 C100 165 82 162 76 152 Z"/>
    <g fill="none" stroke="#141233" stroke-linecap="round">
      <path d="M100 134 C82 118 82 90 73 74" stroke-width="18"/>
      <path d="M73 74 C69 62 63 56 60 50" stroke-width="13"/>
    </g>
    <ellipse cx="58" cy="47" rx="13" ry="11" transform="rotate(-20 58 47)"/>
    <path d="M48 42 L31 50 L50 54 Z"/>
    <rect x="102" y="160" width="3.8" height="40"/>
    <rect x="118" y="161" width="3.8" height="39"/>
  </g>
</svg>
